 <svg
          width="36"
          height="36"
          viewBox="0 0 54 54"
          fill="none"
          xmlns="http://www.w3.org/2000/svg"
        >
          <rect
            x="0.5"
            y="0.5"
            width="53"
            height="53"
            rx="11.5"
            fill="#010D19"
          />
          <rect
            x="0.5"
            y="0.5"
            width="53"
            height="53"
            rx="11.5"
            stroke="url(#paint0_linear_38_19449)"
          />
          <path
            fill-rule="evenodd"
            clip-rule="evenodd"
            d="M19 15.7813C19.5 15.2812 20.1781 15.0002 20.8853 15H33.1147C33.8219 15.0002 34.5 15.2812 35 15.7813L38.2187 19C38.7188 19.5 38.9998 20.1781 39 20.8853V36.3333C39 37.3942 38.5786 38.4116 37.8284 39.1618C37.0783 39.9119 36.0609 40.3333 35 40.3333H19C17.9391 40.3333 16.9217 39.9119 16.1716 39.1618C15.4214 38.4116 15 37.3942 15 36.3333V20.8853C15.0002 20.1781 15.2812 19.5 15.7813 19L19 15.7813ZM33.1147 17.6667H20.8853L18.2187 20.3333H35.7813L33.1147 17.6667ZM24.3333 27C24.3333 26.6464 24.1929 26.3072 23.9428 26.0572C23.6928 25.8071 23.3536 25.6667 23 25.6667C22.6464 25.6667 22.3072 25.8071 22.0572 26.0572C21.8071 26.3072 21.6667 26.6464 21.6667 27C21.6667 28.4145 22.2286 29.771 23.2288 30.7712C24.229 31.7714 25.5855 32.3333 27 32.3333C28.4145 32.3333 29.771 31.7714 30.7712 30.7712C31.7714 29.771 32.3333 28.4145 32.3333 27C32.3333 26.6464 32.1929 26.3072 31.9428 26.0572C31.6928 25.8071 31.3536 25.6667 31 25.6667C30.6464 25.6667 30.3072 25.8071 30.0572 26.0572C29.8071 26.3072 29.6667 26.6464 29.6667 27C29.6667 27.7072 29.3857 28.3855 28.8856 28.8856C28.3855 29.3857 27.7072 29.6667 27 29.6667C26.2928 29.6667 25.6145 29.3857 25.1144 28.8856C24.6143 28.3855 24.3333 27.7072 24.3333 27Z"
            fill="url(#paint1_linear_38_19449)"
          />
          <defs>
            <linearGradient
              id="paint0_linear_38_19449"
              x1="27"
              y1="0"
              x2="27"
              y2="54"
              gradientUnits="userSpaceOnUse"
            >
              <stop stop-color="#C521FF" />
              <stop offset="0.495" stop-color="#FF2164" />
              <stop offset="1" stop-color="#FF9B21" />
            </linearGradient>
            <linearGradient
              id="paint1_linear_38_19449"
              x1="27"
              y1="15"
              x2="27"
              y2="40.3333"
              gradientUnits="userSpaceOnUse"
            >
              <stop stop-color="#C521FF" />
              <stop offset="0.5" stop-color="#FF2164" />
              <stop offset="1" stop-color="#FF9B21" />
            </linearGradient>
          </defs>
        </svg>